<svg width="0" height="0" class="hidden">
 
<symbol id="icon-smileFace" viewBox="0 0 29 32"  xmlns="http://www.w3.org/2000/svg">
<path   d="M0 15.903c0-8.756 6.512-15.854 14.545-15.854s14.545 7.098 14.545 15.854c0 8.756-6.512 15.855-14.545 15.855s-14.545-7.098-14.545-15.855zM14.545 2.162c-6.962 0-12.606 6.152-12.606 13.741s5.644 13.741 12.606 13.741 12.606-6.152 12.606-13.741c0-7.589-5.644-13.741-12.606-13.741zM9.697 12.732h-1.939v-2.114h1.939v2.114zM21.333 12.732h-1.939v-2.114h1.939v2.114zM8.921 17.594l0.582 0.845c2.521 3.664 7.564 3.664 10.085 0l0.582-0.845 1.552 1.268-0.582 0.846c-3.297 4.792-9.891 4.792-13.188 0l-0.582-0.846 1.552-1.268z"></path>
</symbol>
<symbol id="icon-arrow-back" viewBox="0 0 32 32"  xmlns="http://www.w3.org/2000/svg">
<path fill="#ff868e" d="M7.536 17.584l13.76 13.759c0.875 0.876 2.294 0.876 3.169 0s0.875-2.294 0-3.169l-12.175-12.175 12.175-12.174c0.875-0.875 0.875-2.294 0-3.169s-2.294-0.875-3.169 0l-13.76 13.759c-0.437 0.438-0.656 1.011-0.656 1.584s0.219 1.147 0.656 1.584z"></path>
</symbol>

<symbol id="icon-Heart" viewBox="0 0 32 32" xmlns="http://www.w3.org/2000/svg">
<path d="M8.609 4.267c-3.576 0-6.476 2.899-6.476 6.476 0 1.717 0.682 3.365 1.897 4.579l11.97 11.97 11.97-11.97c1.215-1.214 1.897-2.862 1.897-4.579 0-3.576-2.899-6.476-6.476-6.476-1.717 0-3.365 0.682-4.579 1.897l-2.058 2.058c-0.417 0.417-1.092 0.417-1.508 0l-2.057-2.058c-1.214-1.214-2.862-1.897-4.579-1.897zM0 10.742c0-4.755 3.854-8.609 8.609-8.609 2.283 0 4.473 0.907 6.088 2.522l1.303 1.303 1.303-1.303c1.614-1.615 3.804-2.522 6.088-2.522 4.755 0 8.609 3.854 8.609 8.609 0 2.283-0.907 4.473-2.522 6.088l-12.724 12.724c-0.417 0.417-1.092 0.417-1.508 0l-12.724-12.724c-1.615-1.614-2.522-3.804-2.522-6.088z"></path>
</symbol>
<symbol id="icon-sadFace" viewBox="0 0 32 32"  xmlns="http://www.w3.org/2000/svg">
<path d="M0 16c0-8.837 7.163-16 16-16s16 7.163 16 16c0 8.837-7.163 16-16 16s-16-7.163-16-16zM16 2.133c-7.658 0-13.867 6.208-13.867 13.867s6.208 13.867 13.867 13.867c7.658 0 13.867-6.208 13.867-13.867s-6.208-13.867-13.867-13.867zM10.667 12.8h-2.133v-2.133h2.133v2.133zM23.467 12.8h-2.133v-2.133h2.133v2.133zM8.107 21.547l0.64-0.853c3.627-4.836 10.88-4.836 14.507 0l0.64 0.853-1.707 1.28-0.64-0.853c-2.773-3.698-8.32-3.698-11.093 0l-0.64 0.853-1.707-1.28z"></path>
</symbol>
<symbol id="icon-search" viewBox="0 0 32 32" xmlns="http://www.w3.org/2000/svg">
<path fill="#ff868e" style="fill: var(--color1, #ff868e)" d="M30.977 29.147l-7.616-7.921c1.958-2.328 3.031-5.257 3.031-8.306 0-7.124-5.796-12.92-12.92-12.92s-12.92 5.796-12.92 12.92c0 7.124 5.796 12.92 12.92 12.92 2.674 0 5.223-0.807 7.402-2.338l7.674 7.981c0.321 0.333 0.752 0.517 1.214 0.517 0.438 0 0.853-0.167 1.168-0.47 0.67-0.644 0.691-1.713 0.047-2.383zM13.472 3.37c5.266 0 9.55 4.284 9.55 9.55s-4.284 9.55-9.55 9.55-9.55-4.284-9.55-9.55c0-5.266 4.284-9.55 9.55-9.55z"></path>
</symbol>
</svg>