<svg width="0" height="0" class="hidden">
 

  <symbol fill="inherit" xmlns="http://www.w3.org/2000/svg" viewBox="0 0 24 24" id="heart">
    <path d="M3 12C0.75 9 1.5 4.5 5.25 3C9 1.5 11.25 4.5 12 6C12.75 4.5 15.75 1.5 19.5 3C23.25 4.5 23.25 9 21 12C18.75 15 12 21 12 21C12 21 5.25 15 3 12Z" stroke-width="2" stroke-linecap="round" stroke-linejoin="round"></path>
  </symbol>

<symbol id="arrow" viewBox="0 0 24 24" fill="inherit"  xmlns="http://www.w3.org/2000/svg">
<path d="M23.808 32c3.554-6.439 4.153-16.26-9.808-15.932v7.932l-12-12 12-12v7.762c16.718-0.436 18.58 14.757 9.808 24.238z"  stroke-width="2" ></path>
</symbol>
<symbol id="arrow" viewBox="0 0 24 24" fill="inherit"  xmlns="http://www.w3.org/2000/svg">
<symbol id="icon-smileFace" viewBox="0 0 29 32">
<path fill="#ff868e" style="fill: var(--color1, #ff868e)" d="M0 15.903c0-8.756 6.512-15.854 14.545-15.854s14.545 7.098 14.545 15.854c0 8.756-6.512 15.855-14.545 15.855s-14.545-7.098-14.545-15.855zM14.545 2.162c-6.962 0-12.606 6.152-12.606 13.741s5.644 13.741 12.606 13.741 12.606-6.152 12.606-13.741c0-7.589-5.644-13.741-12.606-13.741zM9.697 12.732h-1.939v-2.114h1.939v2.114zM21.333 12.732h-1.939v-2.114h1.939v2.114zM8.921 17.594l0.582 0.845c2.521 3.664 7.564 3.664 10.085 0l0.582-0.845 1.552 1.268-0.582 0.846c-3.297 4.792-9.891 4.792-13.188 0l-0.582-0.846 1.552-1.268z"></path>
</symbol>
</symbol>
</svg>