<svg width="0" height="0" class="hidden">
 

  <symbol fill="inherit" xmlns="http://www.w3.org/2000/svg" viewBox="0 0 24 24" id="heart">
    <path d="M3 12C0.75 9 1.5 4.5 5.25 3C9 1.5 11.25 4.5 12 6C12.75 4.5 15.75 1.5 19.5 3C23.25 4.5 23.25 9 21 12C18.75 15 12 21 12 21C12 21 5.25 15 3 12Z" stroke-width="2" stroke-linecap="round" stroke-linejoin="round"></path>
  </symbol>

<symbol id="arrow" viewBox="0 0 24 24" fill="inherit"  xmlns="http://www.w3.org/2000/svg">
<path d="M23.808 32c3.554-6.439 4.153-16.26-9.808-15.932v7.932l-12-12 12-12v7.762c16.718-0.436 18.58 14.757 9.808 24.238z"  stroke-width="2" ></path>
</symbol>
</svg>