<svg width="0" height="0" class="hidden">
 
<symbol id="icon-smileFace" viewBox="0 0 29 32"  xmlns="http://www.w3.org/2000/svg">
<path   d="M0 15.903c0-8.756 6.512-15.854 14.545-15.854s14.545 7.098 14.545 15.854c0 8.756-6.512 15.855-14.545 15.855s-14.545-7.098-14.545-15.855zM14.545 2.162c-6.962 0-12.606 6.152-12.606 13.741s5.644 13.741 12.606 13.741 12.606-6.152 12.606-13.741c0-7.589-5.644-13.741-12.606-13.741zM9.697 12.732h-1.939v-2.114h1.939v2.114zM21.333 12.732h-1.939v-2.114h1.939v2.114zM8.921 17.594l0.582 0.845c2.521 3.664 7.564 3.664 10.085 0l0.582-0.845 1.552 1.268-0.582 0.846c-3.297 4.792-9.891 4.792-13.188 0l-0.582-0.846 1.552-1.268z"></path>
</symbol>
<symbol id="icon-arrow-back" viewBox="0 0 32 32"  xmlns="http://www.w3.org/2000/svg">
<path fill="#ff868e" d="M7.536 17.584l13.76 13.759c0.875 0.876 2.294 0.876 3.169 0s0.875-2.294 0-3.169l-12.175-12.175 12.175-12.174c0.875-0.875 0.875-2.294 0-3.169s-2.294-0.875-3.169 0l-13.76 13.759c-0.437 0.438-0.656 1.011-0.656 1.584s0.219 1.147 0.656 1.584z"></path>
</symbol>

<symbol id="icon-Heart" viewBox="0 0 32 32" xmlns="http://www.w3.org/2000/svg">
<path d="M8.609 4.267c-3.576 0-6.476 2.899-6.476 6.476 0 1.717 0.682 3.365 1.897 4.579l11.97 11.97 11.97-11.97c1.215-1.214 1.897-2.862 1.897-4.579 0-3.576-2.899-6.476-6.476-6.476-1.717 0-3.365 0.682-4.579 1.897l-2.058 2.058c-0.417 0.417-1.092 0.417-1.508 0l-2.057-2.058c-1.214-1.214-2.862-1.897-4.579-1.897zM0 10.742c0-4.755 3.854-8.609 8.609-8.609 2.283 0 4.473 0.907 6.088 2.522l1.303 1.303 1.303-1.303c1.614-1.615 3.804-2.522 6.088-2.522 4.755 0 8.609 3.854 8.609 8.609 0 2.283-0.907 4.473-2.522 6.088l-12.724 12.724c-0.417 0.417-1.092 0.417-1.508 0l-12.724-12.724c-1.615-1.614-2.522-3.804-2.522-6.088z"></path>
</symbol>
<symbol id="icon-sadFace" viewBox="0 0 32 32"  xmlns="http://www.w3.org/2000/svg">
<path d="M0 16c0-8.837 7.163-16 16-16s16 7.163 16 16c0 8.837-7.163 16-16 16s-16-7.163-16-16zM16 2.133c-7.658 0-13.867 6.208-13.867 13.867s6.208 13.867 13.867 13.867c7.658 0 13.867-6.208 13.867-13.867s-6.208-13.867-13.867-13.867zM10.667 12.8h-2.133v-2.133h2.133v2.133zM23.467 12.8h-2.133v-2.133h2.133v2.133zM8.107 21.547l0.64-0.853c3.627-4.836 10.88-4.836 14.507 0l0.64 0.853-1.707 1.28-0.64-0.853c-2.773-3.698-8.32-3.698-11.093 0l-0.64 0.853-1.707-1.28z"></path>
</symbol>
<symbol id="icon-search" viewBox="0 0 32 32" xmlns="http://www.w3.org/2000/svg">
<path fill="#ff868e" style="fill: var(--color1, #ff868e)" d="M30.977 29.147l-7.616-7.921c1.958-2.328 3.031-5.257 3.031-8.306 0-7.124-5.796-12.92-12.92-12.92s-12.92 5.796-12.92 12.92c0 7.124 5.796 12.92 12.92 12.92 2.674 0 5.223-0.807 7.402-2.338l7.674 7.981c0.321 0.333 0.752 0.517 1.214 0.517 0.438 0 0.853-0.167 1.168-0.47 0.67-0.644 0.691-1.713 0.047-2.383zM13.472 3.37c5.266 0 9.55 4.284 9.55 9.55s-4.284 9.55-9.55 9.55-9.55-4.284-9.55-9.55c0-5.266 4.284-9.55 9.55-9.55z"></path>
</symbol>
<symbol id="burger_icon" viewBox="0 0 53 32" xmlns="http://www.w3.org/2000/svg">
<path fill="#ff868e" style="fill: var(--color1, #ff868e)" d="M53.333 3.556h-53.333v-3.556h53.333v3.556zM53.333 17.778h-53.333v-3.556h53.333v3.556zM53.333 32h-53.333v-3.556h53.333v3.556z"></path>
</symbol>
<symbol id="close_icon" viewBox="0 0 32 32" xmlns="http://www.w3.org/2000/svg"> 
<path fill="#ff868e" style="fill: var(--color1, #ff868e)" d="M14.26 15.999l-13.899-13.899 1.741-1.741 13.899 13.899 13.899-13.899 1.741 1.741-13.899 13.899 13.899 13.899-1.741 1.741-13.899-13.899-13.899 13.899-1.741-1.741 13.899-13.899z"></path>
</symbol>

<symbol id="icon-drop_down"  viewBox="0 0 32 32" xmlns="http://www.w3.org/2000/svg">
<path fill="#8c8c8c" style="fill: var(--color1, #8c8c8c)" d="M17.584 24.464l13.759-13.759c0.875-0.875 0.875-2.294 0-3.169s-2.294-0.875-3.169 0l-12.175 12.175-12.174-12.175c-0.875-0.875-2.294-0.875-3.169 0s-0.875 2.294 0 3.169l13.759 13.76c0.438 0.437 1.011 0.656 1.584 0.656s1.147-0.219 1.584-0.656z"></path>
</symbol>


  <symbol     fill="none" xmlns="http://www.w3.org/2000/svg" 

  viewBox="0 0 19 20" id ="icon_sortAtoB">
    <path fill-rule="evenodd" clip-rule="evenodd" d="M4 0.195262C4.26035 -0.0650874 4.68246 -0.0650874 4.94281 0.195262L8.94281 4.19526L8 5.13807L5.13807 2.27614V20H3.80474V2.27614L0.942809 5.13807L0 4.19526L4 0.195262ZM15.1381 1.33333C14.0335 1.33333 13.1381 2.22876 13.1381 3.33333V5.33333H17.1381V3.33333C17.1381 2.22876 16.2426 1.33333 15.1381 1.33333ZM17.1381 6.66667V9.33333H18.4714V3.33333C18.4714 1.49238 16.979 9.93411e-09 15.1381 9.93411e-09C13.2971 9.93411e-09 11.8047 1.49238 11.8047 3.33333V9.33333H13.1381V6.66667H17.1381ZM11.8047 10.6667H15.8047C17.2775 10.6667 18.4714 11.8606 18.4714 13.3333C18.4714 14.1298 18.1222 14.8447 17.5686 15.3333C18.1222 15.822 18.4714 16.5369 18.4714 17.3333C18.4714 18.8061 17.2775 20 15.8047 20H11.8047V10.6667ZM15.8047 14.6667C16.5411 14.6667 17.1381 14.0697 17.1381 13.3333C17.1381 12.597 16.5411 12 15.8047 12H13.1381V14.6667H15.8047ZM13.1381 16H15.8047C16.5411 16 17.1381 16.597 17.1381 17.3333C17.1381 18.0697 16.5411 18.6667 15.8047 18.6667H13.1381V16Z" fill="#8C8C8C"></path>
  </symbol>
 <symbol fill="none" xmlns="http://www.w3.org/2000/svg" viewBox="0 0 19 22" id="icon_sortBtoA">
    <path fill-rule="evenodd" clip-rule="evenodd" d="M3.80474 19.319V0H5.13807V19.319L8 16.1995L8.94281 17.2272L4.94281 21.5872C4.81778 21.7234 4.64822 21.8 4.4714 21.8C4.29459 21.8 4.12502 21.7234 4 21.5872L0 17.2272L0.942809 16.1995L3.80474 19.319ZM15.1381 1.45333C14.0335 1.45333 13.1381 2.42935 13.1381 3.63333V5.81333H17.1381V3.63333C17.1381 2.42935 16.2426 1.45333 15.1381 1.45333ZM17.1381 7.26667V10.1733H18.4714V3.63333C18.4714 1.6267 16.979 0 15.1381 0C13.2971 0 11.8047 1.6267 11.8047 3.63333V10.1733H13.1381V7.26667H17.1381ZM11.8047 11.6267H15.8047C17.2775 11.6267 18.4714 12.928 18.4714 14.5333C18.4714 15.4015 18.1222 16.1807 17.5686 16.7133C18.1222 17.2459 18.4714 18.0252 18.4714 18.8933C18.4714 20.4986 17.2775 21.8 15.8047 21.8H11.8047V11.6267ZM15.8047 15.9867C16.5411 15.9867 17.1381 15.336 17.1381 14.5333C17.1381 13.7307 16.5411 13.08 15.8047 13.08H13.1381V15.9867H15.8047ZM13.1381 17.44H15.8047C16.5411 17.44 17.1381 18.0907 17.1381 18.8933C17.1381 19.696 16.5411 20.3467 15.8047 20.3467H13.1381V17.44Z" fill="#8C8C8C"></path>
  </symbol>
</svg>